<svg xmlns="http://www.w3.org/2000/svg" width="123" height="123" viewBox="0 0 123 123">
  <g id="Group_12" data-name="Group 12" transform="translate(-1298 -2006)">
    <rect id="Rectangle_18" data-name="Rectangle 18" width="123" height="123" transform="translate(1298 2006)" fill="#fff"/>
    <g id="design-thinking" transform="translate(1318.106 2024)">
      <path id="Path_36" data-name="Path 36" d="M49.992,49.984A3.992,3.992,0,1,0,46,45.992,4,4,0,0,0,49.992,49.984Zm0-5.323a1.331,1.331,0,1,1-1.331,1.331A1.332,1.332,0,0,1,49.992,44.661Z" transform="translate(14.881 13.559)" fill="#3ca4b5"/>
      <path id="Path_37" data-name="Path 37" d="M78.393,53.932a2.554,2.554,0,0,1,.544-2.8L80.874,49.2l-5.647-5.647-1.939,1.937a2.568,2.568,0,0,1-2.849.522,2.536,2.536,0,0,1-1.573-2.353V40.921H66.136a23.574,23.574,0,0,0-1.179-6.186l15.4-15.4A10.74,10.74,0,1,0,65.169,4.146L49.786,19.53a23.639,23.639,0,0,0-6.277-1.172,10.59,10.59,0,0,0-12.161-4.965A13.281,13.281,0,0,0,6.675,22.634,7.983,7.983,0,0,0,8.984,38.259h9.653a24.128,24.128,0,0,0-.338,3.992A18.271,18.271,0,0,0,19.715,49.6L7.844,61.472,1.238,78.646A3.542,3.542,0,0,0,1,79.928a3.575,3.575,0,0,0,4.858,3.337l17.174-6.606,8.68-8.681a3.889,3.889,0,0,0,.931,3.549,3.958,3.958,0,0,0,1.943,6.507,8.106,8.106,0,0,0,15.33,0A3.986,3.986,0,0,0,52.9,74.188c0-.1-.023-.193-.029-.29l1.653,1.653,1.939-1.937a2.606,2.606,0,0,1,4.422,1.832V78.18h7.984V75.446a2.608,2.608,0,0,1,4.423-1.832l1.937,1.937L80.874,69.9l-1.936-1.937a2.573,2.573,0,0,1-.523-2.849,2.54,2.54,0,0,1,2.354-1.574H83.5V55.559H80.769a2.56,2.56,0,0,1-2.375-1.626ZM58.454,57.855a39.713,39.713,0,0,0,4.161-4.539,6.575,6.575,0,0,1,2.258-.419,6.718,6.718,0,1,1-6.419,4.958Zm1.6-31.522L66.2,20.181l4.772,4.772L63.869,32.06A24.15,24.15,0,0,0,60.052,26.334Zm1.38-14.688,2.11-2.11L74.968,20.96l-2.11,2.11ZM72.763,3.661a8.079,8.079,0,0,1,5.713,13.791L76.85,19.079,65.424,7.653,67.05,6.027a8.03,8.03,0,0,1,5.713-2.366ZM59.551,13.527,64.323,18.3l-6.149,6.149a24.122,24.122,0,0,0-5.723-3.82Zm3.992,28.724c0,6.924-3.486,10.325-7.178,13.924-2.542,2.479-5.152,5.042-6.672,8.777a3.935,3.935,0,0,0-.788-.08H43.582V58.22a4,4,0,0,0-3.992-3.992H36.929a1.331,1.331,0,1,1,0-2.661H50.236a3.992,3.992,0,0,0,0-7.984H39.59a1.332,1.332,0,0,1-1.331-1.331V38.259h6.653a6.653,6.653,0,0,0,0-13.307c-.037,0-.072.011-.109.011a10.478,10.478,0,0,0,.109-1.341A10.66,10.66,0,0,0,44.6,21.1,21.4,21.4,0,0,1,63.543,42.252ZM34.267,68.866A1.332,1.332,0,0,1,35.6,67.535H48.905a1.331,1.331,0,1,1,0,2.661H35.6A1.332,1.332,0,0,1,34.267,68.866Zm-16.748,0L27.3,59.084a24.155,24.155,0,0,1,4.277,5.266l-9.287,9.288ZM3.661,30.275a5.323,5.323,0,1,1,10.646,0h2.661a7.987,7.987,0,0,0-7.644-7.967A10.635,10.635,0,0,1,28.9,14.441a10.654,10.654,0,0,0-5.215,8.017,5.322,5.322,0,0,0-4.059,5.155h2.661a2.661,2.661,0,1,1,5.323,0h2.661a5.314,5.314,0,0,0-3.906-5.107,7.974,7.974,0,1,1,15.589,3.168,6.64,6.64,0,0,0-3.7,5.931h2.661A3.992,3.992,0,1,1,44.913,35.6H8.984A5.328,5.328,0,0,1,3.661,30.275ZM35.6,38.26v3.992a4,4,0,0,0,3.992,3.992H50.236a1.331,1.331,0,1,1,0,2.661H36.929a3.992,3.992,0,0,0,0,7.984H39.59a1.332,1.332,0,0,1,1.331,1.331v6.653H35.6a3.935,3.935,0,0,0-.788.08c-1.52-3.735-4.13-6.3-6.672-8.777-3.691-3.6-7.178-7-7.178-13.924a21.451,21.451,0,0,1,.41-3.992ZM25.4,57.221l-9.763,9.763-4.772-4.772L21.019,52.059A29.934,29.934,0,0,0,25.4,57.221ZM9.491,64.6,19.9,75.012,11.088,78.4,6.1,73.415ZM4.9,80.781A.915.915,0,0,1,3.721,79.6l1.333-3.468,3.315,3.315Zm37.347.061a5.467,5.467,0,0,1-4.689-2.661h9.379a5.467,5.467,0,0,1-4.689,2.661Zm6.653-5.323H35.6a1.331,1.331,0,0,1,0-2.661H48.905a1.331,1.331,0,0,1,0,2.661ZM80.842,60.881h-.073a5.269,5.269,0,0,0-3.714,8.966l.056.056-1.884,1.884-.056-.056A5.269,5.269,0,0,0,66.2,75.446v.073H63.543v-.073a5.269,5.269,0,0,0-8.968-3.714l-.056.056-1.8-1.8a3.9,3.9,0,0,0,.181-1.119A3.954,3.954,0,0,0,52,66.378a17.161,17.161,0,0,1,3.635-5.671,9.311,9.311,0,1,0,9.235-10.471c-.13,0-.257.013-.386.019a17.459,17.459,0,0,0,1.675-6.672H66.2v.073a5.269,5.269,0,0,0,8.966,3.714l.056-.056L77.11,49.2l-.056.056a5.269,5.269,0,0,0,3.714,8.966h.073Z" transform="translate(0 0)" fill="#3ca4b5"/>
    </g>
  </g>
</svg>
