<svg xmlns="http://www.w3.org/2000/svg" width="123" height="123" viewBox="0 0 123 123">
  <g id="Group_13" data-name="Group 13" transform="translate(-715 -2006)">
    <rect id="Rectangle_17" data-name="Rectangle 17" width="123" height="123" transform="translate(715 2006)" fill="#fff"/>
    <g id="social-media" transform="translate(733.058 2024.546)">
      <path id="Path_29" data-name="Path 29" d="M75.473,53.318a33.8,33.8,0,0,0,.01-20.723A16.838,16.838,0,0,0,69.067.007,16.868,16.868,0,0,0,53.787,10.9a33.807,33.807,0,0,0-20.7,0A16.834,16.834,0,1,0,11.4,32.587a33.805,33.805,0,0,0,.009,20.731A16.862,16.862,0,0,0,.5,69.075a16.681,16.681,0,0,0,1.633,7.241A1.259,1.259,0,0,0,4.4,75.231a14.181,14.181,0,0,1-1.388-6.156A14.318,14.318,0,1,1,7.644,79.614a1.258,1.258,0,0,0-1.7,1.852A16.835,16.835,0,0,0,33.1,74.98a33.811,33.811,0,0,0,20.684,0A16.835,16.835,0,1,0,75.473,53.318ZM59.139,7a14.225,14.225,0,0,1,10-4.481c.139,0,.277-.006.416-.006a14.317,14.317,0,0,1,.4,28.628q-.208.006-.416.006A14.317,14.317,0,0,1,59.139,7ZM53.078,72.563a31.293,31.293,0,0,1-19.272,0A16.84,16.84,0,0,0,13.827,52.61,31.281,31.281,0,0,1,13.818,33.3a16.858,16.858,0,0,0,11.747-1.774,1.258,1.258,0,0,0-1.232-2.194,14.327,14.327,0,1,1,4.079-3.42,1.258,1.258,0,1,0,1.946,1.6A16.839,16.839,0,0,0,33.8,13.317a31.288,31.288,0,0,1,19.281,0A16.856,16.856,0,0,0,69.543,33.668c.162,0,.325,0,.488-.007a17.019,17.019,0,0,0,3.035-.361,31.279,31.279,0,0,1-.01,19.31A16.84,16.84,0,0,0,53.078,72.563ZM69.549,83.392A14.317,14.317,0,1,1,83.867,69.075,14.333,14.333,0,0,1,69.549,83.392Zm0,0" fill="#3ca4b5"/>
      <path id="Path_30" data-name="Path 30" d="M58.862,54.947a1.258,1.258,0,0,0-1.433.012,7.08,7.08,0,0,1-1.37.754,4.679,4.679,0,0,0-7.531,3.163,6.861,6.861,0,0,1-4.61-2.85,1.259,1.259,0,0,0-2.18.212,10.649,10.649,0,0,0-.775,4.384,7.686,7.686,0,0,0,3.095,5.952,7.641,7.641,0,0,1-2.647.366,1.259,1.259,0,0,0-.661,2.358,12.692,12.692,0,0,0,6.156,1.646,11.1,11.1,0,0,0,5.652-1.523,10.519,10.519,0,0,0,4.592-5.6,1.307,1.307,0,0,0,.067-.188,13.075,13.075,0,0,0,.669-4.212c0-.066,0-.132,0-.2a7.159,7.159,0,0,0,1.5-2.935A1.26,1.26,0,0,0,58.862,54.947Zm-3.531,4.078a2.149,2.149,0,0,1,.038.4,10.6,10.6,0,0,1-.533,3.408,1.2,1.2,0,0,0-.048.147,7.971,7.971,0,0,1-3.506,4.276A8.654,8.654,0,0,1,46.233,68.4a10.023,10.023,0,0,0,1.178-.687,1.259,1.259,0,0,0-.2-2.192,5.589,5.589,0,0,1-3.734-4.935,7.275,7.275,0,0,1,.046-1.3,9.379,9.379,0,0,0,6.263,2.176,1.259,1.259,0,0,0,1.226-1.258v-.781a2.161,2.161,0,0,1,3.791-1.447,1.257,1.257,0,0,0,.577.376A1.263,1.263,0,0,0,55.331,59.025Zm0,0" transform="translate(-32.958 -45.541)" fill="#3ca4b5"/>
      <path id="Path_31" data-name="Path 31" d="M381.1,52.939h1.784v7.5a1.258,1.258,0,1,0,2.517,0v-7.5h1.943a1.258,1.258,0,1,0,0-2.517H385.4V46.9a2.2,2.2,0,0,1,2.193-2.192h1.629a1.258,1.258,0,0,0,0-2.517h-1.629a4.715,4.715,0,0,0-4.71,4.709v3.521H381.1a1.258,1.258,0,0,0,0,2.517Zm0,0" transform="translate(-315.69 -35.112)" fill="#3ca4b5"/>
      <path id="Path_32" data-name="Path 32" d="M75.228,384.212a1.732,1.732,0,0,0,.866-.231l8.566-4.948a1.731,1.731,0,0,0,0-3l-8.566-4.948a1.732,1.732,0,0,0-2.6,1.5v9.9a1.731,1.731,0,0,0,1.732,1.731Zm.785-10.265,6.211,3.587-6.211,3.587Zm0,0" transform="translate(-60.748 -308.629)" fill="#3ca4b5"/>
      <path id="Path_33" data-name="Path 33" d="M373.28,358.555H362.343A3.449,3.449,0,0,0,358.9,362v10.935a3.449,3.449,0,0,0,3.445,3.446H373.28a3.449,3.449,0,0,0,3.445-3.446V362A3.449,3.449,0,0,0,373.28,358.555Zm.928,14.38a.929.929,0,0,1-.928.929H362.343a.929.929,0,0,1-.928-.929V362a.93.93,0,0,1,.928-.929H373.28a.93.93,0,0,1,.928.929Zm0,0" transform="translate(-298.262 -298.392)" fill="#3ca4b5"/>
      <path id="Path_34" data-name="Path 34" d="M393.152,389a3.8,3.8,0,1,0,3.8,3.8A3.809,3.809,0,0,0,393.152,389Zm0,5.091a1.287,1.287,0,1,1,1.287-1.287A1.289,1.289,0,0,1,393.152,394.095Zm0,0" transform="translate(-323.603 -323.733)" fill="#3ca4b5"/>
      <path id="Path_35" data-name="Path 35" d="M207.977,178.094a1.258,1.258,0,0,0-1.258,1.258v.564a37.279,37.279,0,0,1-10.28,4.154,1.451,1.451,0,0,0-.887-.3H189.79a2.527,2.527,0,0,0-2.524,2.524V192.9a2.526,2.526,0,0,0,2.524,2.524h1.152l.437,8.391a1.258,1.258,0,0,0,1.256,1.193l.066,0a1.258,1.258,0,0,0,1.192-1.322l-.43-8.26h2.09a1.449,1.449,0,0,0,.887-.3c1.021.246,2.037.536,3.03.866a1.259,1.259,0,0,0,.792-2.389c-1.066-.354-2.157-.665-3.254-.929v-6.143a39.907,39.907,0,0,0,9.712-3.716v13.577q-.83-.448-1.675-.855a1.259,1.259,0,0,0-1.091,2.268c.937.451,1.864.948,2.766,1.477v.562a1.258,1.258,0,1,0,2.517,0V179.352A1.258,1.258,0,0,0,207.977,178.094ZM194.49,192.906l-4.708-.007.007-6.616h4.7Zm0,0" transform="translate(-155.428 -148.211)" fill="#3ca4b5"/>
    </g>
  </g>
</svg>
