<svg xmlns="http://www.w3.org/2000/svg" width="38.289" height="25.846" viewBox="0 0 38.289 25.846">
  <path id="Icon_zocial-email" data-name="Icon zocial-email" d="M.072,27.625V6.357q0-.037.111-.7L12.7,16.363l-12.48,12a3.129,3.129,0,0,1-.148-.738ZM1.734,4.179a1.591,1.591,0,0,1,.628-.111h33.71a2.091,2.091,0,0,1,.665.111L24.182,14.923l-1.662,1.329-3.286,2.7-3.286-2.7-1.662-1.329ZM1.77,29.8,14.361,17.729l4.874,3.951,4.874-3.951L36.7,29.8a1.773,1.773,0,0,1-.628.111H2.361A1.672,1.672,0,0,1,1.77,29.8Zm24-13.44L38.25,5.656a2.2,2.2,0,0,1,.111.7V27.625a2.83,2.83,0,0,1-.111.738Z" transform="translate(-0.072 -4.068)" fill="#3ca4b5"/>
</svg>
