<svg xmlns="http://www.w3.org/2000/svg" xmlns:xlink="http://www.w3.org/1999/xlink" width="98" height="98" viewBox="0 0 98 98">
  <defs>
    <filter id="background" x="0" y="0" width="98" height="98" filterUnits="userSpaceOnUse">
      <feOffset dx="3" dy="3" input="SourceAlpha"/>
      <feGaussianBlur stdDeviation="5" result="blur"/>
      <feFlood flood-opacity="0.102"/>
      <feComposite operator="in" in2="blur"/>
      <feComposite in="SourceGraphic"/>
    </filter>
  </defs>
  <g id="Layer_2" data-name="Layer 2" transform="translate(12 12)">
    <g id="_01.facebook" data-name="01.facebook">
      <g transform="matrix(1, 0, 0, 1, -12, -12)" filter="url(#background)">
        <path id="background-2" data-name="background" d="M34,0A34,34,0,1,1,0,34,34,34,0,0,1,34,0Z" transform="translate(12 12)" fill="#3c3a3a"/>
      </g>
      <path id="icon" d="M83.041,49.714l-.728,5.747a1.144,1.144,0,0,1-1.16.964h-6.58l-.033,17.04a.805.805,0,0,1-.823.776H67.05a.863.863,0,0,1-.594-.23.714.714,0,0,1-.229-.55V56.425H61.293a1.129,1.129,0,0,1-1.168-1.087L60.1,49.59A1.132,1.132,0,0,1,61.268,48.5h4.96V42.946c0-6.441,4.2-9.946,10.348-9.946h5.042a1.243,1.243,0,0,1,.835.326,1.031,1.031,0,0,1,.337.769v4.836a1.031,1.031,0,0,1-.337.769,1.243,1.243,0,0,1-.835.326H78.525c-3.344,0-3.994,1.5-3.994,3.667v4.8h7.35a1.235,1.235,0,0,1,.88.372A1.017,1.017,0,0,1,83.041,49.714Z" transform="translate(-37.398 -19.428)" fill="#3ca4b5"/>
    </g>
  </g>
</svg>
