<svg xmlns="http://www.w3.org/2000/svg" xmlns:xlink="http://www.w3.org/1999/xlink" width="98" height="98" viewBox="0 0 98 98">
  <defs>
    <filter id="Background" x="0" y="0" width="98" height="98" filterUnits="userSpaceOnUse">
      <feOffset dx="3" dy="3" input="SourceAlpha"/>
      <feGaussianBlur stdDeviation="5" result="blur"/>
      <feFlood flood-opacity="0.102"/>
      <feComposite operator="in" in2="blur"/>
      <feComposite in="SourceGraphic"/>
    </filter>
    <filter id="Shade" x="0.007" y="0" width="89.339" height="89.346" filterUnits="userSpaceOnUse">
      <feOffset dx="3" dy="3" input="SourceAlpha"/>
      <feGaussianBlur stdDeviation="5" result="blur-2"/>
      <feFlood flood-opacity="0.102"/>
      <feComposite operator="in" in2="blur-2"/>
      <feComposite in="SourceGraphic"/>
    </filter>
    <filter id="Path_52" x="16.039" y="16.039" width="65.643" height="65.644" filterUnits="userSpaceOnUse">
      <feOffset dx="3" dy="3" input="SourceAlpha"/>
      <feGaussianBlur stdDeviation="5" result="blur-3"/>
      <feFlood flood-opacity="0.102"/>
      <feComposite operator="in" in2="blur-3"/>
      <feComposite in="SourceGraphic"/>
    </filter>
    <filter id="Path_53" x="24.781" y="24.651" width="48.141" height="48.392" filterUnits="userSpaceOnUse">
      <feOffset dx="3" dy="3" input="SourceAlpha"/>
      <feGaussianBlur stdDeviation="5" result="blur-4"/>
      <feFlood flood-opacity="0.102"/>
      <feComposite operator="in" in2="blur-4"/>
      <feComposite in="SourceGraphic"/>
    </filter>
    <filter id="Path_54" x="41.32" y="22.046" width="34.317" height="34.375" filterUnits="userSpaceOnUse">
      <feOffset dx="3" dy="3" input="SourceAlpha"/>
      <feGaussianBlur stdDeviation="5" result="blur-5"/>
      <feFlood flood-opacity="0.102"/>
      <feComposite operator="in" in2="blur-5"/>
      <feComposite in="SourceGraphic"/>
    </filter>
  </defs>
  <g id="Layer_2" data-name="Layer 2" transform="translate(12 12)">
    <g id="Circle" transform="translate(0 0)">
      <g id="_03.Instagram" data-name="03.Instagram">
        <g transform="matrix(1, 0, 0, 1, -12, -12)" filter="url(#Background)">
          <rect id="Background-2" data-name="Background" width="68" height="68" rx="34" transform="translate(12 12)" fill="#3c3a3a"/>
        </g>
        <g id="Group_26" data-name="Group 26" transform="translate(0.007)">
          <g transform="matrix(1, 0, 0, 1, -12.01, -12)" filter="url(#Shade)">
            <path id="Shade-2" data-name="Shade" d="M59.355,11.584A120.725,120.725,0,0,1,38.713,38.717a120.885,120.885,0,0,1-27.12,20.629q-.851-.74-1.653-1.542A33.859,33.859,0,1,1,57.817,9.914q.8.807,1.538,1.67Z" transform="translate(11.99 12)" fill="#3c3a3a" opacity="0.1"/>
          </g>
          <g id="Icon" transform="translate(16.032 16.039)">
            <g transform="matrix(1, 0, 0, 1, -28.04, -28.04)" filter="url(#Path_52)">
              <path id="Path_52-2" data-name="Path 52" d="M61.841,36H45.8A9.8,9.8,0,0,0,36,45.8V61.841a9.8,9.8,0,0,0,9.8,9.8H61.841a9.8,9.8,0,0,0,9.8-9.8V45.8a9.8,9.8,0,0,0-9.8-9.8Zm6.683,24.433a8.091,8.091,0,0,1-8.091,8.091H47.21a8.091,8.091,0,0,1-8.091-8.091V47.21a8.091,8.091,0,0,1,8.091-8.091H60.433a8.091,8.091,0,0,1,8.091,8.091Z" transform="translate(-7.96 -7.96)" fill="#3ba2b3"/>
            </g>
            <g transform="matrix(1, 0, 0, 1, -28.04, -28.04)" filter="url(#Path_53)">
              <path id="Path_53-2" data-name="Path 53" d="M71.2,58.106l-.085-.085-.071-.071A8.982,8.982,0,0,0,64.7,55.33a9.142,9.142,0,0,0-9.08,9.209,9.245,9.245,0,0,0,2.673,6.509,9,9,0,0,0,6.425,2.673A9.236,9.236,0,0,0,71.2,58.106ZM64.7,70.581a6.042,6.042,0,1,1,5.957-6.042A6.042,6.042,0,0,1,64.7,70.581Z" transform="translate(-18.84 -18.68)" fill="#3ba2b3"/>
            </g>
            <g transform="matrix(1, 0, 0, 1, -28.04, -28.04)" filter="url(#Path_54)">
              <path id="Path_54-2" data-name="Path 54" d="M97.058,51.663A2.174,2.174,0,0,1,94.9,53.855a2.143,2.143,0,0,1-1.524-.637A2.2,2.2,0,0,1,94.9,49.48a2.148,2.148,0,0,1,1.377.5l.044.044a1.359,1.359,0,0,1,.2.2l.049.053A2.192,2.192,0,0,1,97.058,51.663Z" transform="translate(-39.42 -15.43)" fill="#3ba2b3"/>
            </g>
          </g>
        </g>
      </g>
    </g>
  </g>
</svg>
