<svg xmlns="http://www.w3.org/2000/svg" xmlns:xlink="http://www.w3.org/1999/xlink" width="98" height="98" viewBox="0 0 98 98">
  <defs>
    <filter id="Path_58" x="0" y="0" width="98" height="98" filterUnits="userSpaceOnUse">
      <feOffset dx="3" dy="3" input="SourceAlpha"/>
      <feGaussianBlur stdDeviation="5" result="blur"/>
      <feFlood flood-opacity="0.102"/>
      <feComposite operator="in" in2="blur"/>
      <feComposite in="SourceGraphic"/>
    </filter>
  </defs>
  <g id="linkedin" transform="translate(12 12.001)">
    <g transform="matrix(1, 0, 0, 1, -12, -12)" filter="url(#Path_58)">
      <path id="Path_58-2" data-name="Path 58" d="M34,0A34,34,0,1,1,0,34,34,34,0,0,1,34,0Z" transform="translate(12 12)" fill="#3c3a3a"/>
    </g>
    <g id="Group_27" data-name="Group 27" transform="translate(16.27 14.418)">
      <path id="Path_55" data-name="Path 55" d="M65.226,46.323V60.432h-8.18V47.268c0-3.305-1.181-5.563-4.143-5.563a4.475,4.475,0,0,0-4.2,2.991,5.6,5.6,0,0,0-.271,1.994V60.432H40.255s.11-22.3,0-24.6h8.182v3.486c-.016.027-.04.054-.054.081h.054v-.081a8.122,8.122,0,0,1,7.373-4.064c5.382,0,9.417,3.516,9.417,11.072ZM31.7,23.969c-2.8,0-4.629,1.837-4.629,4.25a4.237,4.237,0,0,0,4.522,4.252h.053c2.853,0,4.627-1.89,4.627-4.252a4.25,4.25,0,0,0-4.573-4.25ZM27.554,60.432h8.178v-24.6H27.554Z" transform="translate(-27.068 -23.969)" fill="#3ca4b5"/>
    </g>
  </g>
</svg>
