<svg xmlns="http://www.w3.org/2000/svg" width="123" height="123" viewBox="0 0 123 123">
  <g id="Group_10" data-name="Group 10" transform="translate(-721 -1629)">
    <g id="Group_91" data-name="Group 91">
      <rect id="Rectangle_14" data-name="Rectangle 14" width="123" height="123" transform="translate(721 1629)" fill="#fff"/>
      <g id="_003---Online-Game-Development" data-name="003---Online-Game-Development" transform="translate(742 1645.997)">
        <path id="Path" d="M51.483,41.45a1.483,1.483,0,0,0,1.483-1.483V38.483a1.483,1.483,0,1,0-2.967,0v1.483A1.483,1.483,0,0,0,51.483,41.45Z" transform="translate(24.169 17.885)" fill="#3ca4b5"/>
        <path id="Path-2" data-name="Path" d="M49.967,40H48.483a1.483,1.483,0,0,0,0,2.967h1.483a1.483,1.483,0,1,0,0-2.967Z" transform="translate(22.719 19.335)" fill="#3ca4b5"/>
        <path id="Path-3" data-name="Path" d="M51.483,42A1.483,1.483,0,0,0,50,43.483v1.483a1.483,1.483,0,0,0,2.967,0V43.483A1.483,1.483,0,0,0,51.483,42Z" transform="translate(24.169 20.302)" fill="#3ca4b5"/>
        <path id="Path-4" data-name="Path" d="M56.45,41.483A1.483,1.483,0,0,0,54.967,40H53.483a1.483,1.483,0,1,0,0,2.967h1.483A1.483,1.483,0,0,0,56.45,41.483Z" transform="translate(25.136 19.335)" fill="#3ca4b5"/>
        <path id="Path-5" data-name="Path" d="M37.384,41.45H34.417V38.483a1.483,1.483,0,1,0-2.967,0V41.45H28.483a1.483,1.483,0,0,0,0,2.967H31.45v2.967a1.483,1.483,0,0,0,2.967,0V44.417h2.967a1.483,1.483,0,1,0,0-2.967Z" transform="translate(13.051 17.885)" fill="#3ca4b5"/>
        <path id="Path-6" data-name="Path" d="M39.967,44H38.483a1.483,1.483,0,1,0,0,2.967h1.483a1.483,1.483,0,0,0,0-2.967Z" transform="translate(17.885 21.269)" fill="#3ca4b5"/>
        <path id="Path-7" data-name="Path" d="M44.967,44H43.483a1.483,1.483,0,0,0,0,2.967h1.483a1.483,1.483,0,0,0,0-2.967Z" transform="translate(20.302 21.269)" fill="#3ca4b5"/>
        <path id="Shape" d="M88.975,60.682A13.647,13.647,0,0,0,77.136,47.554V7.417A7.426,7.426,0,0,0,69.719,0H7.417A7.426,7.426,0,0,0,0,7.417V74.169a7.426,7.426,0,0,0,7.417,7.417H32.694A7.946,7.946,0,0,0,40.659,89a8.049,8.049,0,0,0,7.007-4.113l1.839-3.3H69.719a7.353,7.353,0,0,0,2.216-.355l2.038,3.661A8.024,8.024,0,0,0,89,80.978V61.249c0-.083-.01-.163-.012-.245s.012-.125.012-.185A1.386,1.386,0,0,0,88.975,60.682ZM7.417,2.967h62.3a4.45,4.45,0,0,1,4.45,4.45v4.45H2.967V7.417A4.45,4.45,0,0,1,7.417,2.967Zm-4.45,71.2V14.834h71.2V47.551a13.213,13.213,0,0,0-8.455,4.367H55.938a13.325,13.325,0,0,0-10.054-4.45A13.579,13.579,0,0,0,32.67,60.681c0,.047-.028.089-.028.138s.012.122.012.182c0,.083-.012.165-.012.248v17.37H7.417a4.45,4.45,0,0,1-4.45-4.45Zm66.752,4.45H51.157l2.054-3.688a1.483,1.483,0,0,1,1.295-.762H67.13a1.483,1.483,0,0,1,1.295.762l2,3.6A4.391,4.391,0,0,1,69.719,78.619Zm16.317,2.359a5.058,5.058,0,0,1-9.473,2.468l-5.545-9.958A4.45,4.45,0,0,0,67.13,71.2H54.507a4.45,4.45,0,0,0-3.888,2.286l-5.542,9.953A5.057,5.057,0,0,1,35.6,80.978v-11.8a13.3,13.3,0,0,0,3.708,3.213,1.483,1.483,0,0,0,1.483-2.568,10.418,10.418,0,0,1-5.181-8.814A10.62,10.62,0,0,1,45.9,50.435h.086a10.45,10.45,0,0,1,10.056,7.788,1.483,1.483,0,0,0,1.436,1.113,1.532,1.532,0,0,0,.375-.046,1.483,1.483,0,0,0,1.067-1.808,13.405,13.405,0,0,0-.991-2.6h5.785a13.405,13.405,0,0,0-.988,2.6,1.483,1.483,0,0,0,1.061,1.808,1.532,1.532,0,0,0,.372.046,1.483,1.483,0,0,0,1.436-1.113,10.45,10.45,0,0,1,10.059-7.788h.086A10.618,10.618,0,0,1,86.024,61a10.415,10.415,0,0,1-5.18,8.816,1.483,1.483,0,1,0,1.483,2.568,13.3,13.3,0,0,0,3.708-3.206Z" fill="#3ca4b5"/>
        <path id="Path-8" data-name="Path" d="M5.483,6.967H6.967A1.483,1.483,0,1,0,6.967,4H5.483a1.483,1.483,0,1,0,0,2.967Z" transform="translate(1.934 1.934)" fill="#3ca4b5"/>
        <path id="Path-9" data-name="Path" d="M10.483,6.967h1.483a1.483,1.483,0,0,0,0-2.967H10.483a1.483,1.483,0,1,0,0,2.967Z" transform="translate(4.35 1.934)" fill="#3ca4b5"/>
        <path id="Path-10" data-name="Path" d="M15.483,6.967h1.483a1.483,1.483,0,1,0,0-2.967H15.483a1.483,1.483,0,0,0,0,2.967Z" transform="translate(6.767 1.934)" fill="#3ca4b5"/>
        <path id="Path-11" data-name="Path" d="M42.483,6.967H49.9A1.483,1.483,0,0,0,49.9,4H42.483a1.483,1.483,0,0,0,0,2.967Z" transform="translate(19.819 1.934)" fill="#3ca4b5"/>
        <path id="Path-12" data-name="Path" d="M23.916,14.435a1.483,1.483,0,0,0-2.1,0L11.435,24.818a1.483,1.483,0,0,0,0,2.1L21.818,37.3a1.483,1.483,0,0,0,2.1-2.1l-9.335-9.335,9.335-9.335a1.483,1.483,0,0,0,0-2.1Z" transform="translate(5.317 6.767)" fill="#3ca4b5"/>
        <path id="Path-13" data-name="Path" d="M32.435,37.294a1.483,1.483,0,0,0,2.1,0L44.916,26.91a1.483,1.483,0,0,0,0-2.1L34.532,14.429a1.483,1.483,0,0,0-2.1,2.1l9.335,9.335L32.435,35.2a1.483,1.483,0,0,0,0,2.1Z" transform="translate(15.468 6.773)" fill="#3ca4b5"/>
        <path id="Path-14" data-name="Path" d="M22.9,37.608a1.483,1.483,0,0,0,1.948-.779l8.9-20.767a1.483,1.483,0,0,0-2.726-1.169L22.12,35.66a1.483,1.483,0,0,0,.779,1.948Z" transform="translate(10.634 6.774)" fill="#3ca4b5"/>
      </g>
    </g>
  </g>
</svg>
