<svg xmlns="http://www.w3.org/2000/svg" width="123" height="123" viewBox="0 0 123 123">
  <g id="Group_9" data-name="Group 9" transform="translate(-137 -1629)">
    <rect id="Rectangle_19" data-name="Rectangle 19" width="123" height="123" transform="translate(137 1629)" fill="none"/>
    <g id="app-development_1_" data-name="app-development(1)" transform="translate(156.113 1641.584)">
      <g id="Group_7" data-name="Group 7" transform="translate(9.155 2)">
        <path id="Path_6" data-name="Path 6" d="M28.064,8.721h7.554a1.486,1.486,0,0,0,0-2.973H28.064a1.486,1.486,0,0,0,0,2.973Z" transform="translate(-0.682 -0.177)" fill="#3ca4b5"/>
        <path id="Path_7" data-name="Path 7" d="M23.531,62.556H37.006a1.486,1.486,0,0,0,0-2.973H23.531a1.486,1.486,0,1,0,0,2.973Z" transform="translate(-2.886 26.002)" fill="#3ca4b5"/>
        <path id="Path_8" data-name="Path 8" d="M10.641,75.771a1.486,1.486,0,0,0,1.486-1.486V16.12H60.946v7.646a1.486,1.486,0,0,0,2.973,0c0-1.788,0,5.485.007-15.85A5.934,5.934,0,0,0,58,2H15.071A5.96,5.96,0,0,0,9.155,7.92V74.285a1.486,1.486,0,0,0,1.486,1.486ZM58,4.973A2.965,2.965,0,0,1,60.946,7.92v5.227H12.128V7.915a2.953,2.953,0,0,1,2.946-2.943Z" transform="translate(-9.155 -2)" fill="#3ca4b5"/>
        <path id="Path_9" data-name="Path 9" d="M33.893,32.131a1.486,1.486,0,0,0,2.1-.01l6.212-6.27a1.485,1.485,0,0,0,0-2.092l-6.212-6.27a1.486,1.486,0,1,0-2.112,2.092L39.058,24.8l-5.175,5.224a1.486,1.486,0,0,0,.01,2.1Z" transform="translate(2.661 5.319)" fill="#3ca4b5"/>
        <path id="Path_10" data-name="Path 10" d="M24.267,17.48a1.483,1.483,0,0,0-2.1.01l-6.211,6.27a1.485,1.485,0,0,0,0,2.092l6.211,6.27a1.486,1.486,0,0,0,2.112-2.092L19.1,24.806l5.174-5.224a1.486,1.486,0,0,0-.01-2.1Z" transform="translate(-6.057 5.318)" fill="#3ca4b5"/>
        <path id="Path_11" data-name="Path 11" d="M32.079,14.821,23.355,36.774a1.486,1.486,0,1,0,2.762,1.1l8.724-21.953a1.486,1.486,0,1,0-2.762-1.1Z" transform="translate(-2.301 3.778)" fill="#3ca4b5"/>
        <path id="Path_12" data-name="Path 12" d="M47.588,33.04a7.892,7.892,0,1,0,7.877,7.892A7.9,7.9,0,0,0,47.588,33.04Zm1.486,12.574V39.951a1.486,1.486,0,1,0-2.973,0v5.678a4.928,4.928,0,1,1,2.973-.015Z" transform="translate(5.697 13.094)" fill="#3ca4b5"/>
        <path id="Path_13" data-name="Path 13" d="M81.686,40.384l-3.656-.416a16.3,16.3,0,0,0-1.07-2.527l2.14-3.032a1.468,1.468,0,0,0-.149-1.9l-4.266-4.251a1.481,1.481,0,0,0-1.977-.119l-2.869,2.3A15.668,15.668,0,0,0,67.3,29.415l-.609-3.671a1.486,1.486,0,0,0-1.471-1.234H59.2a1.5,1.5,0,0,0-1.486,1.323l-.4,3.671A16.288,16.288,0,0,0,54.8,30.559L51.752,28.4a1.469,1.469,0,0,0-1.9.163L45.6,32.818a1.48,1.48,0,0,0-.1,1.977l2.289,2.883a15.664,15.664,0,0,0-1.026,2.542l-3.656.609A1.511,1.511,0,0,0,41.854,42.3v6.02a1.493,1.493,0,0,0,1.323,1.471l3.656.416a16.525,16.525,0,0,0,1.07,2.527l-2.14,3.017a1.49,1.49,0,0,0,.164,1.917l4.251,4.251a1.48,1.48,0,0,0,1.977.1l2.883-2.289a16.91,16.91,0,0,0,2.527,1.011l.609,3.671a1.485,1.485,0,0,0,1.471,1.249h1.308V68.95H10.642a1.491,1.491,0,0,0-1.486,1.486v9.824a5.931,5.931,0,0,0,5.915,5.916H57.995a5.934,5.934,0,0,0,5.93-5.916v-14.6h1.739a1.5,1.5,0,0,0,1.486-1.323l.416-3.671a16.946,16.946,0,0,0,2.512-1.055l3.032,2.155a1.508,1.508,0,0,0,1.917-.163l4.236-4.266a1.462,1.462,0,0,0,.1-1.962L77.079,52.5A16.829,16.829,0,0,0,78.1,49.955l3.656-.624a1.5,1.5,0,0,0,1.248-1.457V41.855a1.47,1.47,0,0,0-1.323-1.471ZM60.953,80.261A2.953,2.953,0,0,1,57.995,83.2H15.071a2.95,2.95,0,0,1-2.943-2.943V71.923H60.953v8.338Zm19.084-33.65-3.359.565a1.5,1.5,0,0,0-1.2,1.13,13.6,13.6,0,0,1-1.442,3.6,1.457,1.457,0,0,0,.119,1.665l2.066,2.616L73.809,58.62l-2.794-1.992a1.485,1.485,0,0,0-1.635-.045,12.408,12.408,0,0,1-3.537,1.486,1.506,1.506,0,0,0-1.13,1.278l-.372,3.344H60.893l-.565-3.374a1.46,1.46,0,0,0-1.115-1.189,13.552,13.552,0,0,1-3.567-1.457,1.479,1.479,0,0,0-1.68.119l-2.631,2.081L48.914,56.45l1.962-2.75a1.579,1.579,0,0,0,.06-1.665,12.906,12.906,0,0,1-1.516-3.567,1.457,1.457,0,0,0-1.263-1.1l-3.329-.386V43.564L48.185,43a1.5,1.5,0,0,0,1.2-1.13A12.272,12.272,0,0,1,50.846,38.3a1.5,1.5,0,0,0-.1-1.694l-2.1-2.631,2.423-2.423,2.779,1.977a1.486,1.486,0,0,0,1.635.059,12.873,12.873,0,0,1,3.567-1.5,1.476,1.476,0,0,0,1.1-1.263l.372-3.344H63.97l.565,3.359a1.48,1.48,0,0,0,1.115,1.2A12.529,12.529,0,0,1,69.231,33.5a1.479,1.479,0,0,0,1.679-.119l2.616-2.1,2.423,2.438L73.987,36.49a1.553,1.553,0,0,0-.06,1.65,12.831,12.831,0,0,1,1.5,3.552,1.493,1.493,0,0,0,1.278,1.115l3.329.372v3.433Z" transform="translate(-9.154 8.946)" fill="#3ca4b5"/>
      </g>
    </g>
  </g>
</svg>
