<svg id="portfolio" xmlns="http://www.w3.org/2000/svg" width="36.638" height="32.201" viewBox="0 0 36.638 32.201">
  <path id="Path_49" data-name="Path 49" d="M211,240h6.44v2.147H211Zm0,0" transform="translate(-195.901 -222.826)" fill="#3ca4b5"/>
  <path id="Path_50" data-name="Path 50" d="M29.724,91.191H23.686v1.073a1.073,1.073,0,0,1-1.073,1.073H14.025a1.073,1.073,0,0,1-1.073-1.073V91.191H6.914a3.216,3.216,0,0,1-3.055-2.2L0,77.41v23.442a3.224,3.224,0,0,0,3.22,3.22h30.2a3.224,3.224,0,0,0,3.22-3.22V77.411L32.778,88.99A3.216,3.216,0,0,1,29.724,91.191Zm0,0" transform="translate(0 -71.871)" fill="#3ca4b5"/>
  <path id="Path_51" data-name="Path 51" d="M46.574,0H37.987a3.224,3.224,0,0,0-3.22,3.22V4.293H25.809L29.857,16.44a1.073,1.073,0,0,0,1.019.734h6.038V16.1a1.073,1.073,0,0,1,1.073-1.073h8.587A1.073,1.073,0,0,1,47.647,16.1v1.073h6.038A1.073,1.073,0,0,0,54.7,16.44L58.753,4.293H49.794V3.22A3.224,3.224,0,0,0,46.574,0Zm-9.66,4.293V3.22a1.074,1.074,0,0,1,1.073-1.073h8.587A1.074,1.074,0,0,1,47.647,3.22V4.293Zm0,0" transform="translate(-23.962)" fill="#3ca4b5"/>
</svg>
