<svg xmlns="http://www.w3.org/2000/svg" xmlns:xlink="http://www.w3.org/1999/xlink" width="98" height="98" viewBox="0 0 98 98">
  <defs>
    <filter id="Path_57" x="0" y="0" width="98" height="98" filterUnits="userSpaceOnUse">
      <feOffset dx="3" dy="3" input="SourceAlpha"/>
      <feGaussianBlur stdDeviation="5" result="blur"/>
      <feFlood flood-opacity="0.102"/>
      <feComposite operator="in" in2="blur"/>
      <feComposite in="SourceGraphic"/>
    </filter>
  </defs>
  <g id="twitter" transform="translate(11.999 12)">
    <g transform="matrix(1, 0, 0, 1, -12, -12)" filter="url(#Path_57)">
      <path id="Path_57-2" data-name="Path 57" d="M34,0A34,34,0,1,1,0,34,34,34,0,0,1,34,0Z" transform="translate(12 12)" fill="#3c3a3a"/>
    </g>
    <g id="Group_28" data-name="Group 28" transform="translate(15.172 20.587)">
      <path id="Path_56" data-name="Path 56" d="M64.794,37.847a16.247,16.247,0,0,1-4.677,1.281,8.165,8.165,0,0,0,3.581-4.5A16.3,16.3,0,0,1,58.527,36.6a8.15,8.15,0,0,0-13.877,7.428,23.116,23.116,0,0,1-16.785-8.509,8.152,8.152,0,0,0,2.52,10.872A8.086,8.086,0,0,1,26.7,45.37c0,.035,0,.069,0,.1a8.148,8.148,0,0,0,6.533,7.984,8.175,8.175,0,0,1-3.677.141,8.152,8.152,0,0,0,7.607,5.655A16.438,16.438,0,0,1,25.1,62.625a23.034,23.034,0,0,0,12.482,3.659c14.978,0,23.169-12.408,23.169-23.17,0-.353-.008-.7-.024-1.053a16.513,16.513,0,0,0,4.064-4.215Z" transform="translate(-25.103 -34.028)" fill="#3ba2b3"/>
    </g>
  </g>
</svg>
