<svg xmlns="http://www.w3.org/2000/svg" width="123" height="123" viewBox="0 0 123 123">
  <g id="Group_14" data-name="Group 14" transform="translate(-132 -2006)">
    <rect id="Rectangle_16" data-name="Rectangle 16" width="123" height="123" transform="translate(132 2006)" fill="#fff"/>
    <g id="ux-design" transform="translate(96.639 2019.15)">
      <g id="Group_8" data-name="Group 8" transform="translate(62.128 0)">
        <path id="Path_23" data-name="Path 23" d="M198.864,27.133h5.646a1.417,1.417,0,0,0,0-2.833h-5.646a1.417,1.417,0,1,0,0,2.833Z" transform="translate(-171.891 -19.711)" fill="#3ca4b5"/>
        <path id="Path_24" data-name="Path 24" d="M324.316,31.8a1.395,1.395,0,1,0,1.395,1.395A1.395,1.395,0,0,0,324.316,31.8Z" transform="translate(-273.666 -25.794)" fill="#3ca4b5"/>
        <path id="Path_25" data-name="Path 25" d="M130.675,66.174h-8.952V64.185h8.952a4.685,4.685,0,1,0,0-9.37h-20.7a4.692,4.692,0,0,0-4.6,3.773h-11.7A4.377,4.377,0,0,0,89.3,62.961V69.82H82.064A4.693,4.693,0,0,0,77.6,66.551H73.292a4.69,4.69,0,0,0-4.685,4.685,4.846,4.846,0,0,0,5.422,4.685v4.1A4.377,4.377,0,0,0,78.4,84.388h5.276a1.417,1.417,0,1,0,0-2.833H78.4a1.541,1.541,0,0,1-1.539-1.539v-4.1a4.939,4.939,0,0,0,5.2-3.268h23.581a4.691,4.691,0,0,0,4.327,2.891h8.918V88.981A4.891,4.891,0,0,1,114,93.867H69.847a4.891,4.891,0,0,1-4.886-4.886V7.719a4.891,4.891,0,0,1,4.886-4.886h5.514L76,6.171a6.654,6.654,0,0,0,6.526,5.4h18.8a6.654,6.654,0,0,0,6.526-5.4l.639-3.337H114a4.891,4.891,0,0,1,4.886,4.886V49.188a1.417,1.417,0,1,0,2.833,0V7.719A7.728,7.728,0,0,0,114,0H69.847a7.728,7.728,0,0,0-7.719,7.719V88.981A7.728,7.728,0,0,0,69.847,96.7H114a7.728,7.728,0,0,0,7.719-7.719V75.543h8.952a4.685,4.685,0,1,0,0-9.37ZM77.6,73.088H73.292a1.852,1.852,0,1,1,0-3.7H77.6a1.852,1.852,0,1,1,0,3.7ZM105.6,2.833l-.537,2.8a3.817,3.817,0,0,1-3.744,3.1h-18.8a3.817,3.817,0,0,1-3.744-3.1l-.537-2.8Zm4.368,54.816h20.7a1.852,1.852,0,1,1,0,3.7h-20.7a1.852,1.852,0,0,1,0-3.7ZM92.135,62.961a1.541,1.541,0,0,1,1.539-1.539H105.7a4.69,4.69,0,0,0,4.271,2.764h8.918v1.988h-8.918a4.692,4.692,0,0,0-4.567,3.646H92.135V62.961Zm38.54,9.75h-20.7a1.852,1.852,0,0,1,0-3.7h20.7a1.852,1.852,0,1,1,0,3.7Z" transform="translate(-62.128 0)" fill="#3ca4b5"/>
        <path id="Path_26" data-name="Path 26" d="M220.98,423.879a4.685,4.685,0,0,0,0-9.37H208.995a4.685,4.685,0,0,0,0,9.37Zm-13.837-4.685a1.854,1.854,0,0,1,1.852-1.852H220.98a1.852,1.852,0,0,1,0,3.7H208.995A1.854,1.854,0,0,1,207.143,419.194Z" transform="translate(-177.456 -336.222)" fill="#3ca4b5"/>
        <path id="Path_27" data-name="Path 27" d="M103.275,106.861a1.416,1.416,0,0,0-1.417,1.416v15.6c-.209,4.481,4.419,8.537,9.163,8.486,4.632.138,9.658-3.864,9.419-8.5v-15.58a1.417,1.417,0,0,0-2.833,0v15.58c.153,3.046-3.208,5.685-6.6,5.669-2.963.1-6.527-2.641-6.319-5.653v-15.6A1.416,1.416,0,0,0,103.275,106.861Z" transform="translate(-94.349 -86.678)" fill="#3ca4b5"/>
        <path id="Path_28" data-name="Path 28" d="M226.264,130.928a1.484,1.484,0,0,0,1.984-.278l7.842-10.4,8.2,10.8a1.436,1.436,0,0,0,1.985.272,1.417,1.417,0,0,0,.272-1.985L237.862,117.9l7.414-9.833a1.417,1.417,0,1,0-2.262-1.706l-6.932,9.193-6.979-9.2a1.417,1.417,0,0,0-2.257,1.713l7.464,9.835-8.324,11.04a1.416,1.416,0,0,0,.278,1.984Z" transform="translate(-194.807 -85.815)" fill="#3ca4b5"/>
      </g>
    </g>
  </g>
</svg>
