<svg xmlns="http://www.w3.org/2000/svg" width="98.237" height="98.237" viewBox="0 0 98.237 98.237">
  <g id="Calendar" transform="translate(-2 -2)">
    <path id="Path_65" data-name="Path 65" d="M92.051,11.824H83.864V8.549a6.549,6.549,0,1,0-13.1,0v3.275h-13.1V8.549a6.549,6.549,0,1,0-13.1,0v3.275h-13.1V8.549a6.549,6.549,0,0,0-13.1,0v3.275H10.186A8.186,8.186,0,0,0,2,20.01V85.5a8.186,8.186,0,0,0,8.186,8.186H56.03a1.637,1.637,0,1,0,0-3.275H10.186A4.927,4.927,0,0,1,5.275,85.5V34.746H96.962V62.58a1.637,1.637,0,1,0,3.275,0V20.01a8.186,8.186,0,0,0-8.186-8.186ZM74.041,8.549a3.275,3.275,0,1,1,6.549,0v9.824a3.275,3.275,0,1,1-6.549,0Zm-26.2,0a3.275,3.275,0,1,1,6.549,0v9.824a3.275,3.275,0,1,1-6.549,0Zm-26.2,0a3.275,3.275,0,1,1,6.549,0v9.824a3.275,3.275,0,1,1-6.549,0ZM96.962,31.471H5.275V20.01A4.927,4.927,0,0,1,10.186,15.1h8.186v3.275a6.549,6.549,0,1,0,13.1,0V15.1h13.1v3.275a6.549,6.549,0,1,0,13.1,0V15.1h13.1v3.275a6.549,6.549,0,1,0,13.1,0V15.1h8.186a4.927,4.927,0,0,1,4.912,4.912Z" transform="translate(0 0)" fill="#1ba6b3"/>
    <path id="Path_66" data-name="Path 66" d="M35.1,30.275A3.275,3.275,0,0,0,31.824,27H25.275A3.275,3.275,0,0,0,22,30.275v4.912a3.275,3.275,0,0,0,3.275,3.275h6.549A3.275,3.275,0,0,0,35.1,35.186Zm-9.824,4.912V30.275h6.549v4.912Z" transform="translate(12.746 15.932)" fill="#1ba6b3"/>
    <path id="Path_67" data-name="Path 67" d="M23.1,30.275A3.275,3.275,0,0,0,19.824,27H13.275A3.275,3.275,0,0,0,10,30.275v4.912a3.275,3.275,0,0,0,3.275,3.275h6.549A3.275,3.275,0,0,0,23.1,35.186Zm-9.824,4.912V30.275h6.549v4.912Z" transform="translate(5.098 15.932)" fill="#1ba6b3"/>
    <path id="Path_68" data-name="Path 68" d="M55.824,38.461A3.275,3.275,0,0,0,59.1,35.186V30.275A3.275,3.275,0,0,0,55.824,27H49.275A3.275,3.275,0,0,0,46,30.275v4.912a3.275,3.275,0,0,0,3.275,3.275Zm-6.549-8.186h6.549v4.912H49.275Z" transform="translate(28.041 15.932)" fill="#1ba6b3"/>
    <path id="Path_69" data-name="Path 69" d="M35.1,39.275A3.275,3.275,0,0,0,31.824,36H25.275A3.275,3.275,0,0,0,22,39.275v4.912a3.275,3.275,0,0,0,3.275,3.275h6.549A3.275,3.275,0,0,0,35.1,44.186Zm-9.824,4.912V39.275h6.549v4.912Z" transform="translate(12.746 21.668)" fill="#1ba6b3"/>
    <path id="Path_70" data-name="Path 70" d="M23.1,39.275A3.275,3.275,0,0,0,19.824,36H13.275A3.275,3.275,0,0,0,10,39.275v4.912a3.275,3.275,0,0,0,3.275,3.275h6.549A3.275,3.275,0,0,0,23.1,44.186Zm-9.824,4.912V39.275h6.549v4.912Z" transform="translate(5.098 21.668)" fill="#1ba6b3"/>
    <path id="Path_71" data-name="Path 71" d="M31.824,45H25.275A3.275,3.275,0,0,0,22,48.275v4.912a3.275,3.275,0,0,0,3.275,3.275h6.549A3.275,3.275,0,0,0,35.1,53.186V48.275A3.275,3.275,0,0,0,31.824,45Zm-6.549,8.186V48.275h6.549v4.912Z" transform="translate(12.746 27.403)" fill="#1ba6b3"/>
    <path id="Path_72" data-name="Path 72" d="M37.275,38.461h6.549A3.275,3.275,0,0,0,47.1,35.186V30.275A3.275,3.275,0,0,0,43.824,27H37.275A3.275,3.275,0,0,0,34,30.275v4.912A3.275,3.275,0,0,0,37.275,38.461Zm0-8.186h6.549v4.912H37.275Z" transform="translate(20.393 15.932)" fill="#1ba6b3"/>
    <path id="Path_73" data-name="Path 73" d="M34,44.186a3.275,3.275,0,0,0,3.275,3.275,1.637,1.637,0,0,0,0-3.275V39.275h6.549a1.637,1.637,0,0,0,0-3.275H37.275A3.275,3.275,0,0,0,34,39.275Z" transform="translate(20.393 21.668)" fill="#1ba6b3"/>
    <path id="Path_74" data-name="Path 74" d="M19.824,45H13.275A3.275,3.275,0,0,0,10,48.275v4.912a3.275,3.275,0,0,0,3.275,3.275h6.549A3.275,3.275,0,0,0,23.1,53.186V48.275A3.275,3.275,0,0,0,19.824,45Zm-6.549,8.186V48.275h6.549v4.912Z" transform="translate(5.098 27.403)" fill="#1ba6b3"/>
    <path id="Path_75" data-name="Path 75" d="M57.285,36A21.285,21.285,0,1,0,78.569,57.285,21.285,21.285,0,0,0,57.285,36Zm0,39.295a18.01,18.01,0,1,1,18.01-18.01,18.01,18.01,0,0,1-18.01,18.01Z" transform="translate(21.668 21.668)" fill="#1ba6b3"/>
    <path id="Path_76" data-name="Path 76" d="M63.075,44.995,50.341,57.73,44.553,51.94a1.637,1.637,0,1,0-2.315,2.315L49.183,61.2a1.637,1.637,0,0,0,2.315,0L65.391,47.31a1.637,1.637,0,1,0-2.315-2.315Z" transform="translate(25.337 27.094)" fill="#1ba6b3"/>
  </g>
</svg>
