<svg id="_10-work_environment" data-name="10-work environment" xmlns="http://www.w3.org/2000/svg" width="99.332" height="99.332" viewBox="0 0 99.332 99.332">
  <path id="Path_107" data-name="Path 107" d="M97.78,71.458H84.091l1.251-7.5a1.552,1.552,0,0,0-1.531-1.807h-.886a21.9,21.9,0,0,0,.824-4.656h1.614a1.552,1.552,0,0,0,0-3.1H83.7a10,10,0,0,0-1.278-3.777l2.085-1.043a1.552,1.552,0,1,0-1.388-2.777l-2.8,1.4A7.414,7.414,0,0,0,77.6,46.832V45.073a1.552,1.552,0,0,0-3.1,0v1.759a7.414,7.414,0,0,0-2.709,1.359l-2.8-1.4A1.552,1.552,0,0,0,67.6,49.565l2.086,1.043A10,10,0,0,0,68.4,54.385H66.739a1.552,1.552,0,0,0,0,3.1h1.614a21.9,21.9,0,0,0,.824,4.656h-.886a1.552,1.552,0,0,0-1.531,1.807l1.251,7.5H34.145V69.906a4.661,4.661,0,0,0-4.656-4.656h-3.1v-3.1H38.8a4.661,4.661,0,0,0,4.656-4.656V32.656A4.661,4.661,0,0,0,38.8,28H4.656A4.661,4.661,0,0,0,0,32.656V57.489a4.661,4.661,0,0,0,4.656,4.656H17.073v3.1h-3.1a4.661,4.661,0,0,0-4.656,4.656v1.552H1.552A1.552,1.552,0,0,0,0,73.01v9.312a1.552,1.552,0,0,0,1.552,1.552H97.78a1.552,1.552,0,0,0,1.552-1.552V73.01a1.552,1.552,0,0,0-1.552-1.552ZM71.395,55.937c0-3.835,2.418-6.208,4.656-6.208s4.656,2.374,4.656,6.208a18.7,18.7,0,0,1-1.043,6.208H72.438a18.7,18.7,0,0,1-1.043-6.208ZM70.123,65.25H81.979l-1.034,6.208H71.157ZM4.656,31.1H38.8a1.554,1.554,0,0,1,1.552,1.552V52.833H3.1V32.656A1.554,1.554,0,0,1,4.656,31.1ZM3.1,57.489V55.937h37.25v1.552A1.554,1.554,0,0,1,38.8,59.041H4.656A1.554,1.554,0,0,1,3.1,57.489Zm17.073,4.656h3.1v3.1h-3.1Zm-7.76,7.76a1.554,1.554,0,0,1,1.552-1.552H29.489a1.554,1.554,0,0,1,1.552,1.552v1.552H12.417ZM96.228,80.77H3.1V74.562H96.228Z" transform="translate(0 15.458)" fill="#00a6b1"/>
  <path id="Path_108" data-name="Path 108" d="M49,44h3.1v3.1H49Z" transform="translate(27.051 24.291)" fill="#00a6b1"/>
  <path id="Path_109" data-name="Path 109" d="M47,47h3.1v3.1H47Z" transform="translate(25.947 25.947)" fill="#00a6b1"/>
  <path id="Path_110" data-name="Path 110" d="M79.01,0H35.552A1.552,1.552,0,0,0,34,1.552V51.218a1.552,1.552,0,0,0,1.552,1.552H79.01a1.552,1.552,0,0,0,1.552-1.552V1.552A1.552,1.552,0,0,0,79.01,0ZM77.458,49.666H37.1V3.1H77.458Z" transform="translate(18.77 0)" fill="#00a6b1"/>
  <path id="Path_111" data-name="Path 111" d="M54.76,22.521A7.76,7.76,0,1,0,47,14.76a7.76,7.76,0,0,0,7.76,7.76Zm0-12.417A4.656,4.656,0,1,1,50.1,14.76,4.656,4.656,0,0,1,54.76,10.1Z" transform="translate(25.947 3.864)" fill="#00a6b1"/>
  <path id="Path_112" data-name="Path 112" d="M51,4h3.1V7.1H51Z" transform="translate(28.155 2.208)" fill="#00a6b1"/>
  <path id="Path_113" data-name="Path 113" d="M44,11h3.1v3.1H44Z" transform="translate(24.291 6.073)" fill="#00a6b1"/>
  <path id="Path_114" data-name="Path 114" d="M46,6h3.1V9.1H46Z" transform="translate(25.395 3.312)" fill="#00a6b1"/>
  <path id="Path_115" data-name="Path 115" d="M46,16h3.1v3.1H46Z" transform="translate(25.395 8.833)" fill="#00a6b1"/>
  <path id="Path_116" data-name="Path 116" d="M56,6h3.1V9.1H56Z" transform="translate(30.916 3.312)" fill="#00a6b1"/>
  <path id="Path_117" data-name="Path 117" d="M56,16h3.1v3.1H56Z" transform="translate(30.916 8.833)" fill="#00a6b1"/>
  <path id="Path_118" data-name="Path 118" d="M58,11h3.1v3.1H58Z" transform="translate(32.02 6.073)" fill="#00a6b1"/>
  <path id="Path_119" data-name="Path 119" d="M51,18h3.1v3.1H51Z" transform="translate(28.155 9.937)" fill="#00a6b1"/>
  <path id="Path_120" data-name="Path 120" d="M42.656,35.521H53.521a6.208,6.208,0,1,0,0-12.417,6.052,6.052,0,0,0-.82.056,6.2,6.2,0,0,0-11.6,3.048c0,.088,0,.176.006.264a4.656,4.656,0,0,0,1.546,9.049Zm-.03-6.208h0l.171.02a1.552,1.552,0,0,0,1.6-2.078,3.047,3.047,0,0,1-.2-1.052,3.1,3.1,0,0,1,6.09-.806,1.554,1.554,0,0,0,2.079,1.035,3.087,3.087,0,0,1,1.153-.229,3.118,3.118,0,0,1,2.943,4.129,3.189,3.189,0,0,1-3.08,2.086H42.65a1.552,1.552,0,1,1-.024-3.1Z" transform="translate(20.978 11.041)" fill="#00a6b1"/>
  <path id="Path_121" data-name="Path 121" d="M21,14.4a1.492,1.492,0,0,0,.209.014H39.832a1.552,1.552,0,0,0,0-3.1H21.323A4.112,4.112,0,0,1,18.594,9.5a2.93,2.93,0,0,1,.812-4.057,2.028,2.028,0,0,1,2.815.565,1.294,1.294,0,0,1,.2.963,1.553,1.553,0,1,0,3.053.568A4.381,4.381,0,0,0,24.8,4.286a5.132,5.132,0,0,0-7.118-1.424,6.036,6.036,0,0,0-1.673,8.361A7.2,7.2,0,0,0,21,14.4Z" transform="translate(8.282 1.104)" fill="#00a6b1"/>
  <path id="Path_122" data-name="Path 122" d="M15.323,21.1H36.936a1.552,1.552,0,0,0,0-3.1H15.207a1.492,1.492,0,0,0-.209.014,7.2,7.2,0,0,0-4.987,3.18,6.036,6.036,0,0,0,1.673,8.36,5.087,5.087,0,0,0,2.836.864,5.152,5.152,0,0,0,4.28-2.285,4.382,4.382,0,0,0,.67-3.259,1.553,1.553,0,1,0-3.053.568,1.3,1.3,0,0,1-.2.965,2.028,2.028,0,0,1-2.813.563,2.929,2.929,0,0,1-.812-4.056A4.11,4.11,0,0,1,15.323,21.1Z" transform="translate(4.97 9.937)" fill="#00a6b1"/>
  <path id="Path_123" data-name="Path 123" d="M8,20.4a1.492,1.492,0,0,0,.209.014H28.384a1.552,1.552,0,0,0,0-3.1H8.323A4.112,4.112,0,0,1,5.594,15.5a2.93,2.93,0,0,1,.812-4.057,2.028,2.028,0,0,1,2.815.565,1.294,1.294,0,0,1,.2.963,1.553,1.553,0,1,0,3.053.568,4.381,4.381,0,0,0-.668-3.256A5.132,5.132,0,0,0,4.685,8.862a6.036,6.036,0,0,0-1.673,8.361A7.2,7.2,0,0,0,8,20.4Z" transform="translate(1.105 4.416)" fill="#00a6b1"/>
  <path id="Path_124" data-name="Path 124" d="M26.656,17.1a1.552,1.552,0,0,0,0-3.1h-3.1a1.552,1.552,0,0,0,0,3.1Z" transform="translate(12.145 7.729)" fill="#00a6b1"/>
  <path id="Path_125" data-name="Path 125" d="M32.656,14h-3.1a1.552,1.552,0,0,0,0,3.1h3.1a1.552,1.552,0,0,0,0-3.1Z" transform="translate(15.458 7.729)" fill="#00a6b1"/>
</svg>
