<svg id="holidays" xmlns="http://www.w3.org/2000/svg" width="97.645" height="97.645" viewBox="0 0 97.645 97.645">
  <path id="Path_77" data-name="Path 77" d="M89.507,6.51H86.253V4.882a4.882,4.882,0,1,0-9.764,0V6.51h-6.51V4.882a4.882,4.882,0,0,0-9.764,0V6.51H53.7V4.882a4.882,4.882,0,1,0-9.764,0V6.51H37.43V4.882a4.882,4.882,0,1,0-9.764,0V6.51h-6.51V4.882a4.882,4.882,0,1,0-9.764,0V6.51H8.137A8.147,8.147,0,0,0,0,14.647V76.488a8.147,8.147,0,0,0,8.137,8.137h3.271A22.574,22.574,0,0,0,8.3,94.064a3.3,3.3,0,0,0,.846,2.518,3.255,3.255,0,0,0,2.409,1.063h74.7a3.255,3.255,0,0,0,2.4-1.06,3.3,3.3,0,0,0,.846-2.519,22.59,22.59,0,0,0-3.108-9.439h3.113a8.147,8.147,0,0,0,8.137-8.137V14.647A8.147,8.147,0,0,0,89.507,6.51ZM79.743,4.882a1.627,1.627,0,1,1,3.255,0v6.51a1.627,1.627,0,1,1-3.255,0Zm-16.274,0a1.627,1.627,0,1,1,3.255,0v6.51a1.627,1.627,0,1,1-3.255,0Zm-16.274,0a1.627,1.627,0,1,1,3.255,0v6.51a1.627,1.627,0,1,1-3.255,0Zm-16.274,0a1.627,1.627,0,1,1,3.255,0v6.51a1.627,1.627,0,1,1-3.255,0Zm-16.274,0a1.627,1.627,0,1,1,3.255,0v6.51a1.627,1.627,0,1,1-3.255,0ZM8.137,9.764h3.255v1.627a4.882,4.882,0,0,0,9.764,0V9.764h6.51v1.627a4.882,4.882,0,0,0,9.764,0V9.764h6.51v1.627a4.882,4.882,0,1,0,9.764,0V9.764h6.51v1.627a4.882,4.882,0,0,0,9.764,0V9.764h6.51v1.627a4.882,4.882,0,0,0,9.764,0V9.764h3.255a4.882,4.882,0,0,1,4.882,4.882v4.882H3.255V14.647A4.882,4.882,0,0,1,8.137,9.764ZM11.555,94.39l-.008-.029c1.107-12.194,14.29-22.009,31.108-23.993l1.818,4.187a1.627,1.627,0,0,0,1.494.976,1.606,1.606,0,0,0,.651-.135,1.627,1.627,0,0,0,.843-2.14l-1.382-3.183c.936-.049,1.873-.1,2.827-.1a49.732,49.732,0,0,1,20.066,4.077L67.5,76.488H53.021a3.255,3.255,0,0,0-2.708,1.45l-2.767,4.157A1.628,1.628,0,1,0,50.254,83.9l2.768-4.158H67.555L70.322,83.9a1.628,1.628,0,1,0,2.708-1.806L70.346,78.07,71.891,75.5c8.178,4.441,13.66,11.195,14.362,18.894ZM89.507,81.37h-5.39a35.383,35.383,0,0,0-10.568-8.625L74.7,70.822a1.628,1.628,0,1,0-2.791-1.676L70.63,71.281A52.577,52.577,0,0,0,48.9,66.724c-1.422,0-2.827.057-4.213.163L39.058,53.914a17.615,17.615,0,0,1,5.859-1.03,1.566,1.566,0,0,0,1.429-.7,12.235,12.235,0,0,1,10.35-4.5,1.63,1.63,0,0,0,1.494-2.649c-6.163-7.486-17.324-9.73-27.144-5.465S15.26,53.525,16.51,63.137a1.627,1.627,0,0,0,1.232,1.372,1.7,1.7,0,0,0,.382.044,1.627,1.627,0,0,0,1.341-.706,12.241,12.241,0,0,1,10.358-4.5,1.644,1.644,0,0,0,1.486-.561,17.783,17.783,0,0,1,4.754-3.58l5.226,12.031C29.552,68.854,19.529,74.122,13.67,81.37H8.137a4.882,4.882,0,0,1-4.882-4.882v-53.7H94.39v53.7a4.882,4.882,0,0,1-4.882,4.882ZM30.722,54.888c-1.691-5.126-1.1-9.371,1.681-12.194,3.929-.1,7.46,2.361,10.057,7.1a23.293,23.293,0,0,0-11.738,5.1Zm14.694-6.464a18.038,18.038,0,0,0-7.03-7.54,19.635,19.635,0,0,1,14.762,3.743,15.636,15.636,0,0,0-7.732,3.793Zm-17.708,7.69a15.656,15.656,0,0,0-8.048,3.061,19.625,19.625,0,0,1,7.323-13.335,18.033,18.033,0,0,0,.724,10.274Z" fill="#00a6b2"/>
  <path id="Path_78" data-name="Path 78" d="M56.947,27.137H55.082a6.371,6.371,0,0,0-.692-1.658l1.317-1.317a1.627,1.627,0,1,0-2.3-2.3L52.09,23.178a6.371,6.371,0,0,0-1.658-.692V20.627a1.627,1.627,0,1,0-3.255,0v1.859a6.371,6.371,0,0,0-1.658.692L44.2,21.861a1.627,1.627,0,1,0-2.3,2.3l1.317,1.316a6.371,6.371,0,0,0-.685,1.658H40.673a1.627,1.627,0,1,0,0,3.255h1.858a6.371,6.371,0,0,0,.692,1.658l-1.317,1.317a1.627,1.627,0,1,0,2.3,2.3l1.316-1.317a6.371,6.371,0,0,0,1.658.692V36.9a1.627,1.627,0,1,0,3.255,0V35.043a6.371,6.371,0,0,0,1.658-.692l1.317,1.317a1.627,1.627,0,1,0,2.3-2.3L54.4,32.05a6.371,6.371,0,0,0,.685-1.658h1.859a1.627,1.627,0,0,0,0-3.255ZM48.81,32.019a3.255,3.255,0,1,1,3.255-3.255A3.255,3.255,0,0,1,48.81,32.019Z" transform="translate(24.498 11.921)" fill="#00a6b2"/>
</svg>
