<svg xmlns="http://www.w3.org/2000/svg" width="97.658" height="97.668" viewBox="0 0 97.658 97.668">
  <g id="_15-confetti" data-name="15-confetti" transform="translate(0.002 0.008)">
    <path id="Path_79" data-name="Path 79" d="M41.611,58.944c-.092,0-10.376-3.052-16.113-8.774s-5.661-15.533-5.661-15.64A1.526,1.526,0,0,0,16.877,34L.092,78.247a1.534,1.534,0,0,0,2.075,1.923L41.84,61.859a1.526,1.526,0,0,0-.229-2.914ZM13,52.841a33.951,33.951,0,0,0,7.873,15.35L11.8,72.357,9.324,62.515ZM7.432,67.5l1.526,6.1L4.273,75.836Zm16.357-.671a31.906,31.906,0,0,1-8.53-19.958l2.289-6.1a23.544,23.544,0,0,0,5.783,11.566,41.29,41.29,0,0,0,13.733,8.27Z" transform="translate(0 17.353)" fill="#1ba6b3"/>
    <path id="Path_80" data-name="Path 80" d="M13.382,17.22l-1.328,6.851A1.526,1.526,0,0,0,14.419,25.6l5.264-3.632,5.234,3.647a1.517,1.517,0,0,0,2.365-1.5l-1.3-6.851,3.937-4.044a1.526,1.526,0,0,0-.87-2.594L23.62,9.865,21.087,3.93a1.526,1.526,0,0,0-2.808,0L15.747,9.865l-5.432.763a1.526,1.526,0,0,0-.87,2.594Zm3.647-4.471a1.526,1.526,0,0,0,1.129-.9L19.684,8.4l1.526,3.448a1.526,1.526,0,0,0,1.175.9l3.3.488L23.3,15.648a1.526,1.526,0,0,0-.412,1.358l.748,3.967-3.052-2.121a1.526,1.526,0,0,0-1.739,0l-3.052,2.121.748-3.967a1.526,1.526,0,0,0-.412-1.358l-2.4-2.411Z" transform="translate(4.731 1.583)" fill="#1ba6b3"/>
    <path id="Path_81" data-name="Path 81" d="M70.048,48.134l-5.432-.763L62.083,41.42a1.526,1.526,0,0,0-2.808,0l-2.533,5.951-5.432.793a1.526,1.526,0,0,0-.87,2.579l3.937,4L53.05,61.561a1.526,1.526,0,0,0,2.365,1.526l5.264-3.632L65.913,63.1a1.517,1.517,0,0,0,2.365-1.5l-1.3-6.851,3.937-4a1.526,1.526,0,0,0-.87-2.579Zm-5.8,5a1.526,1.526,0,0,0-.412,1.358l.748,3.967-3.052-2.121a1.526,1.526,0,0,0-1.739,0l-3.052,2.121L57.49,54.5a1.526,1.526,0,0,0-.412-1.358l-2.35-2.411,3.3-.488a1.526,1.526,0,0,0,1.175-.9l1.48-3.494L62.2,49.293a1.526,1.526,0,0,0,1.175.9l3.3.488Z" transform="translate(26.296 21.298)" fill="#1ba6b3"/>
    <path id="Path_82" data-name="Path 82" d="M30.941,13.615l6.9,3.052,3.052,6.9a1.526,1.526,0,0,0,2.808,0l3.052-6.9,6.9-3.052a1.526,1.526,0,0,0,0-2.808l-6.9-3.052L43.636.92a1.526,1.526,0,0,0-2.808,0l-3.052,6.9-6.9,3.052a1.526,1.526,0,0,0,0,2.808Zm8.667-3.235a1.663,1.663,0,0,0,.793-.793L42.232,5.36l1.831,4.227a1.663,1.663,0,0,0,.793.793l4.227,1.831-4.227,1.831a1.663,1.663,0,0,0-.793.793l-1.831,4.227L40.4,14.836a1.663,1.663,0,0,0-.793-.793l-4.227-1.831Z" transform="translate(15.752)" fill="#1ba6b3"/>
    <path id="Path_83" data-name="Path 83" d="M64.425,35.716a1.526,1.526,0,0,0,0-2.808l-6.9-3.052-3.052-6.9a1.526,1.526,0,0,0-2.808,0l-3.052,6.9-6.9,3.052a1.526,1.526,0,0,0,0,2.808l7.019,3.052,3.052,6.9a1.526,1.526,0,0,0,2.808,0l3.052-6.9Zm-9.46,1.221-1.831,4.227-1.846-4.227a1.526,1.526,0,0,0-.778-.778l-4.227-1.846,4.227-1.831a1.526,1.526,0,0,0,.778-.793l1.846-4.227,1.831,4.227a1.526,1.526,0,0,0,.793.793l4.227,1.831L55.758,36.22a1.526,1.526,0,0,0-.793.778Z" transform="translate(21.452 11.59)" fill="#1ba6b3"/>
    <path id="Path_84" data-name="Path 84" d="M15.137,46.469a1.282,1.282,0,0,0,.412,0,1.526,1.526,0,0,0,1.526-1.114A70.51,70.51,0,0,0,18.6,20.361a1.535,1.535,0,0,0-3.052.336,69.228,69.228,0,0,1-1.526,23.834,1.526,1.526,0,0,0,1.114,1.938Z" transform="translate(7.339 9.992)" fill="#1ba6b3"/>
    <path id="Path_85" data-name="Path 85" d="M56.508,43.748a1.526,1.526,0,0,0-1.343-1.678c-14.13-1.526-27.893,7.477-28.473,7.873a1.526,1.526,0,0,0,.824,2.792,1.434,1.434,0,0,0,.839-.259c.137-.092,13.428-8.835,26.459-7.385a1.526,1.526,0,0,0,1.694-1.343Z" transform="translate(13.683 22.036)" fill="#1ba6b3"/>
    <path id="Path_86" data-name="Path 86" d="M16.5,53.277a1.517,1.517,0,0,0,2.151-.107c.641-.7,15.655-17.395,17.181-37.521a1.531,1.531,0,1,0-3.052-.244C31.257,34.479,16.548,50.958,16.4,51.126a1.526,1.526,0,0,0,.107,2.151Z" transform="translate(8.416 7.365)" fill="#1ba6b3"/>
    <path id="Path_87" data-name="Path 87" d="M46.152,35.016C35.089,36.542,25.842,45.7,25.446,46.124a1.532,1.532,0,1,0,2.167,2.167c.076-.092,8.926-8.819,18.966-10.254a1.541,1.541,0,1,0-.427-3.052Z" transform="translate(13.144 18.394)" fill="#1ba6b3"/>
    <path id="Path_88" data-name="Path 88" d="M55,23.994a1.526,1.526,0,0,0-1.968-.9C40.628,27.748,21.219,48.545,20.41,49.43a1.522,1.522,0,1,0,2.228,2.075c.2-.214,19.729-21.148,31.463-25.543a1.526,1.526,0,0,0,.9-1.968Z" transform="translate(10.52 12.097)" fill="#1ba6b3"/>
    <rect id="Rectangle_59" data-name="Rectangle 59" width="3.673" height="2.755" transform="translate(32.906 67.94)" fill="#1ba6b3"/>
    <rect id="Rectangle_60" data-name="Rectangle 60" width="2.755" height="3.673" transform="translate(26.479 64.268)" fill="#1ba6b3"/>
    <path id="Path_89" data-name="Path 89" d="M56.549,23.756a1.526,1.526,0,0,0,1.083.443h.244a1.526,1.526,0,0,0,1.114-.824l3.052-6.1a1.526,1.526,0,0,0-.519-1.953l-4.578-3.052a1.526,1.526,0,0,0-1.678,0l-4.578,3.052a1.513,1.513,0,0,0-.244,2.35Zm-.443-8.408,2.609,1.739L57.189,20.14l-3.3-3.281Z" transform="translate(26.291 6.323)" fill="#1ba6b3"/>
    <path id="Path_90" data-name="Path 90" d="M40.6,59.884l-6.1-4.578a1.526,1.526,0,0,0-2,.137L29.446,58.5a1.526,1.526,0,0,0,0,2.167l4.578,4.578a1.526,1.526,0,0,0,1.083.443,1.4,1.4,0,0,0,.839-.259l4.578-3.052a1.518,1.518,0,0,0,.076-2.487Zm-5.295,2.3L32.68,59.579l1.038-1.038L37.044,61.1Z" transform="translate(15.248 28.926)" fill="#1ba6b3"/>
    <path id="Path_91" data-name="Path 91" d="M7.225,31.856a1.526,1.526,0,0,0,1.358.839,1.526,1.526,0,0,0,.366,0l6.1-1.526A1.55,1.55,0,0,0,16.075,29l-3.052-6.1a1.526,1.526,0,0,0-1.755-.885l-6.1,1.526a1.55,1.55,0,0,0-1.022,2.167ZM10.81,25.31l1.663,3.311L9.422,29.4,7.743,26.088Z" transform="translate(2.099 11.559)" fill="#1ba6b3"/>
    <path id="Path_92" data-name="Path 92" d="M44.526,56A1.526,1.526,0,0,0,43,57.526v3.052a1.526,1.526,0,0,0,3.052,0V57.526A1.526,1.526,0,0,0,44.526,56Z" transform="translate(22.613 29.453)" fill="#1ba6b3"/>
    <path id="Path_93" data-name="Path 93" d="M44.526,50A1.526,1.526,0,0,0,43,51.526v3.052a1.526,1.526,0,1,0,3.052,0V51.526A1.526,1.526,0,0,0,44.526,50Z" transform="translate(22.613 26.298)" fill="#1ba6b3"/>
    <path id="Path_94" data-name="Path 94" d="M43.578,54H40.526a1.526,1.526,0,0,0,0,3.052h3.052a1.526,1.526,0,1,0,0-3.052Z" transform="translate(20.51 28.401)" fill="#1ba6b3"/>
    <path id="Path_95" data-name="Path 95" d="M49.578,54H46.526a1.526,1.526,0,1,0,0,3.052h3.052a1.526,1.526,0,1,0,0-3.052Z" transform="translate(23.665 28.401)" fill="#1ba6b3"/>
    <path id="Path_96" data-name="Path 96" d="M59.526,6A1.526,1.526,0,0,0,58,7.526v3.052a1.526,1.526,0,1,0,3.052,0V7.526A1.526,1.526,0,0,0,59.526,6Z" transform="translate(30.501 3.159)" fill="#1ba6b3"/>
    <path id="Path_97" data-name="Path 97" d="M59.526,6.1a1.526,1.526,0,0,0,1.526-1.526V1.526a1.526,1.526,0,1,0-3.052,0V4.578A1.526,1.526,0,0,0,59.526,6.1Z" transform="translate(30.501 0.004)" fill="#1ba6b3"/>
    <path id="Path_98" data-name="Path 98" d="M55.526,7.052h3.052a1.526,1.526,0,1,0,0-3.052H55.526a1.526,1.526,0,1,0,0,3.052Z" transform="translate(28.398 2.108)" fill="#1ba6b3"/>
    <path id="Path_99" data-name="Path 99" d="M61.526,7.052h3.052a1.526,1.526,0,0,0,0-3.052H61.526a1.526,1.526,0,1,0,0,3.052Z" transform="translate(31.553 2.108)" fill="#1ba6b3"/>
  </g>
</svg>
