<svg xmlns="http://www.w3.org/2000/svg" width="106.042" height="91.903" viewBox="0 0 106.042 91.903">
  <g id="responsive" transform="translate(0 -32)">
    <g id="Group_63" data-name="Group 63" transform="translate(0 32)">
      <g id="Group_62" data-name="Group 62" transform="translate(0 0)">
        <path id="Path_100" data-name="Path 100" d="M100.74,77.952H98.973V40.837A8.847,8.847,0,0,0,90.136,32H15.906a8.847,8.847,0,0,0-8.837,8.837V67.347H5.3A5.3,5.3,0,0,0,0,72.65V118.6a5.3,5.3,0,0,0,5.3,5.3h67.16a1.767,1.767,0,0,0,1.767-1.767,8.847,8.847,0,0,0-8.837-8.837h-5.3v-10.6H81.3V118.6a5.3,5.3,0,0,0,5.3,5.3H100.74a5.3,5.3,0,0,0,5.3-5.3V83.254A5.3,5.3,0,0,0,100.74,77.952ZM38.882,118.6a1.767,1.767,0,0,1-1.767,1.767H5.3A1.767,1.767,0,0,1,3.535,118.6v-1.767H38.882Zm0-5.3H3.535V72.65A1.767,1.767,0,0,1,5.3,70.882H37.115a1.767,1.767,0,0,1,1.767,1.767Zm26.511,3.535a5.313,5.313,0,0,1,5,3.535h-28.3a5.241,5.241,0,0,0,.325-1.767v-1.767ZM42.417,113.3v-10.6h3.535v10.6Zm7.069,0v-10.6h7.069v10.6ZM81.3,99.16H42.417v-10.6H81.3Zm0-15.906v1.767H42.417V72.65a5.239,5.239,0,0,0-.6-2.405c.027-.025.062-.032.087-.058l17.5-17.5a1.767,1.767,0,0,0-2.5-2.5l-17.5,17.5c-.042.044-.06.1-.1.147a5.235,5.235,0,0,0-2.188-.486H10.6V40.837a5.3,5.3,0,0,1,5.3-5.3h74.23a5.3,5.3,0,0,1,5.3,5.3V77.952H86.6A5.3,5.3,0,0,0,81.3,83.254ZM102.507,118.6a1.767,1.767,0,0,1-1.767,1.767H86.6a1.767,1.767,0,0,1-1.767-1.767v-1.767h17.674Zm0-5.3H84.834V83.254A1.767,1.767,0,0,1,86.6,81.486H100.74a1.767,1.767,0,0,1,1.767,1.767Z" transform="translate(0 -32)" fill="#00a6b2"/>
      </g>
    </g>
    <g id="Group_65" data-name="Group 65" transform="translate(10.583 88.342)">
      <g id="Group_64" data-name="Group 64" transform="translate(0 0)">
        <path id="Path_101" data-name="Path 101" d="M58.438,287.551a1.767,1.767,0,0,0-2.5,0l-7.5,7.5a1.767,1.767,0,1,0,2.456,2.542l.043-.043,7.5-7.5C58.753,289.5,58.119,288.464,58.438,287.551Z" transform="translate(-47.902 -287.034)" fill="#00a6b2"/>
      </g>
    </g>
    <g id="Group_67" data-name="Group 67" transform="translate(21.187 88.364)">
      <g id="Group_66" data-name="Group 66" transform="translate(0 0)">
        <path id="Path_102" data-name="Path 102" d="M106.394,287.627a1.768,1.768,0,0,0-2.456,0l-7.5,7.5a1.767,1.767,0,1,0,2.456,2.542l.043-.043,7.5-7.5A1.767,1.767,0,0,0,106.394,287.627Z" transform="translate(-95.902 -287.131)" fill="#00a6b2"/>
      </g>
    </g>
    <g id="Group_69" data-name="Group 69" transform="translate(49.641 49.695)">
      <g id="Group_68" data-name="Group 68">
        <path id="Path_103" data-name="Path 103" d="M245.194,112.595a1.768,1.768,0,0,0-2.456,0l-17.5,17.5a1.767,1.767,0,0,0,2.456,2.543l.044-.044,17.5-17.5A1.767,1.767,0,0,0,245.194,112.595Z" transform="translate(-224.702 -112.098)" fill="#00a6b2"/>
      </g>
    </g>
    <g id="Group_71" data-name="Group 71" transform="translate(89.383 93.148)">
      <g id="Group_70" data-name="Group 70" transform="translate(0 0)">
        <path id="Path_104" data-name="Path 104" d="M412.583,309.282a1.767,1.767,0,0,0-2.456,0l-5,5a1.767,1.767,0,1,0,2.456,2.542l.043-.043,5-5A1.767,1.767,0,0,0,412.583,309.282Z" transform="translate(-404.59 -308.786)" fill="#00a6b2"/>
      </g>
    </g>
    <g id="Group_73" data-name="Group 73" transform="translate(51.28 92.091)">
      <g id="Group_72" data-name="Group 72">
        <path id="Path_105" data-name="Path 105" d="M233.9,304h-.018a1.776,1.776,0,1,0,.018,0Z" transform="translate(-232.12 -304)" fill="#00a6b2"/>
      </g>
    </g>
    <g id="Group_75" data-name="Group 75" transform="translate(47.719 39.069)">
      <g id="Group_74" data-name="Group 74" transform="translate(0 0)">
        <path id="Path_106" data-name="Path 106" d="M224.837,64h-7.069a1.767,1.767,0,0,0,0,3.535h7.069a1.767,1.767,0,0,0,0-3.535Z" transform="translate(-216 -64)" fill="#00a6b2"/>
      </g>
    </g>
  </g>
</svg>
