<svg xmlns="http://www.w3.org/2000/svg" width="93.637" height="94.079" viewBox="0 0 93.637 94.079">
  <g id="healthcare-covid19-coronavirus-hand-hearth" transform="translate(-2.24 -2.199)">
    <path id="Path_61" data-name="Path 61" d="M45.452,15.293h-4.72v-4.72A1.573,1.573,0,0,0,39.159,9H32.866a1.573,1.573,0,0,0-1.573,1.573v4.72h-4.72A1.573,1.573,0,0,0,25,16.866v6.293a1.573,1.573,0,0,0,1.573,1.573h4.72v4.72a1.573,1.573,0,0,0,1.573,1.573h6.293a1.573,1.573,0,0,0,1.573-1.573v-4.72h4.72a1.573,1.573,0,0,0,1.573-1.573V16.866A1.573,1.573,0,0,0,45.452,15.293Zm-1.573,6.293h-4.72a1.573,1.573,0,0,0-1.573,1.573v4.72H34.439v-4.72a1.573,1.573,0,0,0-1.573-1.573h-4.72V18.439h4.72a1.573,1.573,0,0,0,1.573-1.573v-4.72h3.146v4.72a1.573,1.573,0,0,0,1.573,1.573h4.72Z" transform="translate(13.046 3.899)" fill="#2fa5b4"/>
    <path id="Path_62" data-name="Path 62" d="M75.051,20.946a7.2,7.2,0,0,0,.047-.834,6.324,6.324,0,0,0-5-6.151A6.4,6.4,0,0,0,62.7,18.634L55.78,38.551a2.566,2.566,0,0,0-.3.142L41.574,46.841a14.185,14.185,0,0,0-7,12.208V73.869A1.573,1.573,0,0,0,33,75.442V88.028A1.573,1.573,0,0,0,34.573,89.6H56.6a1.573,1.573,0,0,0,1.573-1.573V75.442A1.573,1.573,0,0,0,56.6,73.869V70.408a4.781,4.781,0,0,1,1.573-3.524l10.635-9.455A7.758,7.758,0,0,0,71.2,53.575l6.828-25.533a6.222,6.222,0,0,0,.22-1.636,6.323,6.323,0,0,0-3.194-5.459Zm-9.345-1.384a3.324,3.324,0,0,1,3.744-2.517,3.146,3.146,0,0,1,2.5,3.068v.031a6.45,6.45,0,0,0-6.12,4.814L61.443,38.5a6.607,6.607,0,0,0-2.108-.6ZM55.025,86.454H36.146V77.015H55.025ZM74.989,27.224,68.145,52.772a4.69,4.69,0,0,1-1.416,2.3L56.079,64.524a7.954,7.954,0,0,0-2.627,5.884v3.461H37.72V59.049a11.094,11.094,0,0,1,5.443-9.5l13.891-8.133a3.146,3.146,0,0,1,4.311,1.148,3.241,3.241,0,0,1,.315,2.391,3.146,3.146,0,0,1-1.479,1.9l-9.014,5.207a1.573,1.573,0,0,0,1.573,2.722l9.014-5.207a6.211,6.211,0,0,0,2.942-3.823,6.3,6.3,0,0,0-.629-4.767l-.094-.142,4.861-14.993A3.324,3.324,0,0,1,72.6,23.338a3.146,3.146,0,0,1,2.5,3.068A2.71,2.71,0,0,1,74.989,27.224Z" transform="translate(17.631 6.677)" fill="#2fa5b4"/>
    <path id="Path_63" data-name="Path 63" d="M45.912,73.867V59.047a14.186,14.186,0,0,0-7-12.208L25,38.674c-.094-.047-.2-.079-.3-.126L17.83,18.742a6.461,6.461,0,0,0-7.441-4.783,6.324,6.324,0,0,0-5,6.151,7.2,7.2,0,0,0,.047.834A6.323,6.323,0,0,0,2.24,26.4a6.955,6.955,0,0,0,.2,1.636L9.288,53.557a7.734,7.734,0,0,0,2.391,3.87L22.3,66.882a4.738,4.738,0,0,1,1.589,3.524v3.461a1.573,1.573,0,0,0-1.573,1.573V88.026A1.573,1.573,0,0,0,23.887,89.6H45.912a1.573,1.573,0,0,0,1.573-1.573V75.44A1.573,1.573,0,0,0,45.912,73.867ZM8.533,20.111a3.146,3.146,0,0,1,2.486-3.068,3.4,3.4,0,0,1,3.807,2.627L21.15,37.9a6.608,6.608,0,0,0-2.108.6L14.684,25.035a6.527,6.527,0,0,0-6.151-4.893ZM24.391,64.522,13.756,55.067a4.665,4.665,0,0,1-1.416-2.313L5.481,27.222a3.337,3.337,0,0,1-.094-.818,3.146,3.146,0,0,1,2.486-3.068,3.373,3.373,0,0,1,3.791,2.6l4.83,14.914-.094.142a6.3,6.3,0,0,0-.629,4.767,6.211,6.211,0,0,0,2.942,3.823l9.014,5.207A1.573,1.573,0,0,0,29.3,52.062l-9.014-5.207a3.146,3.146,0,0,1-1.479-1.9,3.241,3.241,0,0,1,.315-2.391A3.146,3.146,0,0,1,23.415,41.4l13.907,8.149a11.094,11.094,0,0,1,5.443,9.5V73.867H27.034V70.406A7.913,7.913,0,0,0,24.391,64.522Zm19.948,21.93H25.46V77.013H44.339Z" transform="translate(0 6.679)" fill="#2fa5b4"/>
    <path id="Path_64" data-name="Path 64" d="M64.04,6.813a15.723,15.723,0,0,0-22.255,0h0A15.73,15.73,0,1,0,19.529,29.05L40.673,50.194a1.573,1.573,0,0,0,2.224,0L64.041,29.05a15.741,15.741,0,0,0,0-22.237ZM41.784,46.857,21.752,26.826A12.586,12.586,0,0,1,30.661,5.347a12.453,12.453,0,0,1,8.893,3.692l1.117,1.117a1.573,1.573,0,0,0,2.224,0l1.12-1.12a12.581,12.581,0,0,1,17.8,17.787Z" transform="translate(7.275 0)" fill="#2fa5b4"/>
  </g>
</svg>
